HIERARCHY
ROOT Hips
{
 OFFSET 0.000000 0.000000 0.000000
 CHANNELS 6 Xposition Yposition Zposition Yrotation Xrotation Zrotation
 JOINT Chest
 {
  OFFSET 0.000000 9.588913 -0.003946
  CHANNELS 3 Yrotation Xrotation Zrotation
  JOINT Chest2
  {
   OFFSET 0.000000 9.541882 0.008053
   CHANNELS 3 Yrotation Xrotation Zrotation
   JOINT Chest3
   {
    OFFSET 0.000000 9.501360 0.000000
    CHANNELS 3 Yrotation Xrotation Zrotation
    JOINT Chest4
    {
     OFFSET 0.000000 9.491660 0.000000
     CHANNELS 3 Yrotation Xrotation Zrotation
     JOINT Neck
     {
      OFFSET 0.000000 14.331917 0.000000
      CHANNELS 3 Yrotation Xrotation Zrotation
      JOINT Head
      {
       OFFSET 0.000000 8.884799 0.017034
       CHANNELS 3 Yrotation Xrotation Zrotation
       End Site
       {
        OFFSET 0.000000 16.896195 0.008993
       }
      }
     }
     JOINT RightCollar
     {
      OFFSET -2.923010 9.499495 0.000000
      CHANNELS 3 Yrotation Xrotation Zrotation
      JOINT RightShoulder
      {
       OFFSET -13.795216 0.000000 0.000000
       CHANNELS 3 Yrotation Xrotation Zrotation
       JOINT RightElbow
       {
        OFFSET -30.272209 0.000000 0.000000
        CHANNELS 3 Yrotation Xrotation Zrotation
        JOINT RightWrist
        {
         OFFSET -24.478199 0.000000 0.000000
         CHANNELS 3 Yrotation Xrotation Zrotation
         End Site
         {
          OFFSET -18.090752 0.000000 0.000000
         }
        }
       }
      }
     }
     JOINT LeftCollar
     {
      OFFSET 2.923010 9.499495 0.000000
      CHANNELS 3 Yrotation Xrotation Zrotation
      JOINT LeftShoulder
      {
       OFFSET 13.795216 0.000000 0.000000
       CHANNELS 3 Yrotation Xrotation Zrotation
       JOINT LeftElbow
       {
        OFFSET 30.272209 0.000000 0.000000
        CHANNELS 3 Yrotation Xrotation Zrotation
        JOINT LeftWrist
        {
         OFFSET 24.478199 0.000000 0.000000
         CHANNELS 3 Yrotation Xrotation Zrotation
         End Site
         {
          OFFSET 18.090752 0.000000 0.000000
         }
        }
       }
      }
     }
    }
   }
  }
 }
 JOINT RightHip
 {
  OFFSET -7.826875 0.019532 0.001973
  CHANNELS 3 Yrotation Xrotation Zrotation
  JOINT RightKnee
  {
   OFFSET 0.000000 -40.546152 -0.001885
   CHANNELS 3 Yrotation Xrotation Zrotation
   JOINT RightAnkle
   {
    OFFSET 0.000000 -39.417092 -0.003189
    CHANNELS 3 Yrotation Xrotation Zrotation
    JOINT RightToe
    {
     OFFSET 0.000000 -7.579396 17.243563
     CHANNELS 3 Yrotation Xrotation Zrotation
     End Site
     {
      OFFSET 0.000000 -1.500329 6.694466
     }
    }
   }
  }
 }
 JOINT LeftHip
 {
  OFFSET 7.826875 0.019532 0.001973
  CHANNELS 3 Yrotation Xrotation Zrotation
  JOINT LeftKnee
  {
   OFFSET 0.000000 -40.546152 -0.001885
   CHANNELS 3 Yrotation Xrotation Zrotation
   JOINT LeftAnkle
   {
    OFFSET 0.000000 -39.417092 -0.003189
    CHANNELS 3 Yrotation Xrotation Zrotation
    JOINT LeftToe
    {
     OFFSET 0.000000 -7.579396 17.243563
     CHANNELS 3 Yrotation Xrotation Zrotation
     End Site
     {
      OFFSET 0.000000 -1.500329 6.694466
     }
    }
   }
  }
 }
}
MOTION
Frames: 13
Frame Time: 0.008333
0.341418 34.341653 -10.962966 54.845721 -4.767841 4.832575 2.603059 17.027136 4.107216 1.303070 9.673722 2.140133 1.692353 12.083781 2.719933 1.303069 9.673723 2.140133 -6.699374 -1.273066 -6.206474 -6.565408 -28.305189 -5.792403 18.715775 -7.431279 -14.998736 27.355403 -52.822269 35.147268 65.769316 -15.258486 -6.593684 10.241143 -9.054187 -16.361134 -8.576438 -4.249094 -3.563756 16.310710 -20.654133 -71.929042 -76.026637 -15.317168 -25.340970 2.570160 -2.305187 -0.664879 119.243631 -83.116431 -144.407357 158.000851 40.032409 177.976108 2.446191 -29.067520 -6.310000 1.657651 -9.921309 -18.332846 125.162988 -77.143496 -124.083509 173.252352 40.292099 175.791155 -6.128168 -28.356513 3.480886 -0.241635 -5.270293 2.876437
0.139374 34.160321 -11.018545 54.929309 -5.104143 4.861961 2.594393 17.047461 4.072495 1.298752 9.683201 2.125578 1.686616 12.095714 2.701614 1.298751 9.683201 2.125578 -6.698450 -1.236526 -6.215098 -6.559446 -28.259074 -5.801862 18.721143 -7.461646 -15.001736 27.327977 -52.838724 35.243553 65.777048 -15.232141 -6.567407 10.255360 -9.055351 -16.361135 -8.631145 -4.269865 -3.555924 16.000693 -20.980249 -71.620454 -75.630707 -15.243288 -25.274286 2.589523 -2.271340 -0.763795 119.743894 -83.088327 -144.870937 157.991979 39.972060 177.973474 2.345741 -29.018099 -6.281495 1.628731 -9.671585 -18.443897 125.306194 -77.096981 -124.246411 173.147459 40.281806 175.747619 -6.183795 -28.233083 3.482176 -0.243438 -4.995838 2.817113
-0.070118 33.971424 -11.074385 55.018392 -5.445911 4.888432 2.581069 17.068779 4.037801 1.291456 9.693112 2.110640 1.677134 12.108207 2.682735 1.291455 9.693112 2.110641 -6.689315 -1.199412 -6.226779 -6.542063 -28.212095 -5.817549 18.735818 -7.499992 -15.009717 27.304225 -52.851064 35.344269 65.781056 -15.205948 -6.544581 10.270782 -9.057709 -16.364549 -8.692417 -4.297902 -3.541324 15.662432 -21.330341 -71.273921 -75.213540 -15.173340 -25.188696 2.619963 -2.240457 -0.844472 120.206337 -83.050574 -145.295388 157.976464 39.909601 177.971258 2.256719 -28.971803 -6.241967 1.598051 -9.405874 -18.568342 125.491794 -77.045251 -124.458178 173.041126 40.270911 175.705893 -6.236113 -28.102496 3.484613 -0.243671 -4.708915 2.750823
-0.287336 33.774310 -11.130232 55.111849 -5.793132 4.911092 2.563145 17.088808 4.003922 1.282342 9.703247 2.095791 1.665374 12.120990 2.663919 1.282340 9.703247 2.095791 -6.676157 -1.161922 -6.240860 -6.518837 -28.164616 -5.837419 18.760340 -7.541342 -15.026105 27.277873 -52.859785 35.449950 65.782274 -15.183950 -6.526018 10.283064 -9.057550 -16.367981 -8.755024 -4.331737 -3.525280 15.288695 -21.706782 -70.883550 -74.773867 -15.094815 -25.091512 2.653416 -2.218486 -0.884259 120.641247 -83.002746 -145.692659 157.953594 39.844512 177.966524 2.192265 -28.923848 -6.199191 1.562983 -9.115023 -18.704695 125.730340 -76.989286 -124.726705 172.942174 40.260278 175.674625 -6.287703 -27.963031 3.490175 -0.239729 -4.409401 2.677257
-0.511703 33.568429 -11.185607 55.207821 -6.150494 4.930243 2.542223 17.109189 3.969728 1.272165 9.713847 2.080946 1.652284 12.134359 2.645081 1.272164 9.713847 2.080946 -6.661362 -1.124657 -6.255700 -6.493342 -28.117421 -5.858713 18.791917 -7.581938 -15.048385 27.249427 -52.868748 35.560538 65.777466 -15.158695 -6.511493 10.293457 -9.055135 -16.369442 -8.818814 -4.372951 -3.510576 14.876561 -22.110870 -70.446479 -74.307578 -14.993126 -24.987398 2.672270 -2.208195 -0.879642 121.054787 -82.948874 -146.068036 157.927284 39.775649 177.957524 2.157322 -28.871469 -6.157957 1.516613 -8.778254 -18.849595 126.001847 -76.933232 -125.027735 172.850390 40.248631 175.651359 -6.340948 -27.818826 3.504132 -0.235815 -4.096435 2.594527
-0.742576 33.353257 -11.240876 55.305605 -6.519858 4.949660 2.520118 17.132241 3.932416 1.261548 9.725901 2.065366 1.638632 12.149550 2.625317 1.261546 9.725900 2.065366 -6.646252 -1.089961 -6.269796 -6.467846 -28.073471 -5.879254 18.819247 -7.630017 -15.067855 27.234726 -52.873746 35.666607 65.767125 -15.126709 -6.500269 10.305179 -9.051517 -16.371388 -8.894938 -4.426103 -3.491842 14.439816 -22.542590 -69.969084 -73.814849 -14.867127 -24.883120 2.672527 -2.208735 -0.843990 121.464452 -82.890561 -146.432784 157.906472 39.703074 177.952792 2.128281 -28.822190 -6.107963 1.451311 -8.380489 -19.000876 126.282266 -76.874843 -125.337515 172.754788 40.234809 175.623154 -6.390282 -27.672635 3.527515 -0.234947 -3.770365 2.499816
-0.980203 33.128125 -11.296742 55.404219 -6.896965 4.971123 2.496590 17.155840 3.890271 1.251720 9.739835 2.049380 1.625969 12.167088 2.605075 1.251718 9.739834 2.049381 -6.632461 -1.059338 -6.283319 -6.444478 -28.034720 -5.898871 18.836791 -7.689365 -15.086332 27.236441 -52.871026 35.765043 65.754983 -15.094616 -6.489953 10.319287 -9.048484 -16.371978 -8.989579 -4.493375 -3.469886 13.989841 -23.002830 -69.455695 -73.293642 -14.728993 -24.791780 2.659742 -2.219199 -0.792216 121.929330 -82.826890 -146.839413 157.897382 39.628203 177.961391 2.079941 -28.782210 -6.040542 1.364544 -7.924192 -19.156794 126.576462 -76.806364 -125.663137 172.654750 40.220148 175.590668 -6.424878 -27.522741 3.557297 -0.235943 -3.431303 2.391870
-1.224466 32.892386 -11.353169 55.504006 -7.281332 4.993434 2.469928 17.179788 3.844872 1.241988 9.754947 2.033588 1.613440 12.186095 2.585084 1.241985 9.754946 2.033589 -6.616697 -1.030959 -6.298860 -6.418173 -27.998827 -5.921723 18.852615 -7.753953 -15.109380 27.244415 -52.862600 35.858326 65.741328 -15.065806 -6.474611 10.335075 -9.048740 -16.365259 -9.097167 -4.574029 -3.452668 13.520166 -23.487394 -68.898913 -72.738558 -14.600486 -24.721456 2.634386 -2.235713 -0.734145 122.486413 -82.758286 -147.327649 157.893643 39.550161 177.973151 2.020241 -28.745033 -5.966281 1.258928 -7.414490 -19.314133 126.888782 -76.726252 -126.011700 172.555542 40.205102 175.563077 -6.444110 -27.368206 3.589897 -0.239111 -3.077788 2.272295
-1.474478 32.645514 -11.409812 55.603539 -7.676633 5.016514 2.441381 17.206832 3.798715 1.231529 9.770889 2.017552 1.599996 12.206145 2.564770 1.231526 9.770888 2.017553 -6.597394 -1.001775 -6.316140 -6.386829 -27.961878 -5.947740 18.872875 -7.817740 -15.136659 27.252131 -52.850855 35.945991 65.727679 -15.039114 -6.451475 10.350502 -9.053306 -16.355018 -9.215213 -4.666314 -3.442717 13.023471 -23.988513 -68.293639 -72.148677 -14.496509 -24.669213 2.599718 -2.255106 -0.685103 123.128709 -82.687435 -147.892438 157.892275 39.467849 177.980125 1.961761 -28.707050 -5.895394 1.046289 -6.572556 -18.466348 127.224006 -76.638525 -126.386722 172.457775 40.187491 175.543542 -6.456376 -27.205856 3.616392 -0.243886 -2.711473 2.148893
-1.729630 32.386973 -11.466407 55.697627 -8.084107 5.040181 2.413996 17.237187 3.752571 1.222483 9.788758 2.000521 1.588310 12.228598 2.543256 1.222480 9.788758 2.000523 -6.579482 -0.971379 -6.331491 -6.357770 -27.923396 -5.970812 18.894024 -7.881354 -15.167263 27.250950 -52.840415 36.033088 65.715056 -15.013914 -6.414366 10.361086 -9.057010 -16.351822 -9.349679 -4.771023 -3.430987 12.496383 -24.501107 -67.643453 -71.524574 -14.419900 -24.622261 2.567621 -2.275569 -0.664303 123.851485 -82.615903 -148.524978 157.898671 39.382043 177.987120 1.909702 -28.668362 -5.832478 0.701392 -5.206494 -15.797691 127.609466 -76.546303 -126.808363 172.362499 40.165550 175.533186 -6.467342 -27.027224 3.621687 -0.246312 -2.243020 1.932392
-1.989606 32.116246 -11.522904 55.786433 -8.503183 5.063566 2.388595 17.270074 3.707123 1.215461 9.808600 1.982290 1.579141 12.253508 2.520299 1.215457 9.808600 1.982291 -6.565407 -0.938860 -6.344858 -6.334072 -27.882311 -5.990126 18.911219 -7.946451 -15.198849 27.242388 -52.834337 36.122229 65.700180 -14.987028 -6.361924 10.366010 -9.058567 -16.356143 -9.504704 -4.890370 -3.412026 11.936411 -25.017686 -66.954571 -70.868187 -14.367009 -24.569081 2.549577 -2.289785 -0.680470 124.656953 -82.541497 -149.229802 157.911654 39.292609 177.996251 1.865082 -28.624261 -5.784100 0.400324 -3.765413 -12.647483 128.079573 -76.451158 -127.311510 172.272133 40.138141 175.532550 -6.479505 -26.822533 3.593516 -0.246990 -1.620916 1.553949
-2.253153 31.833089 -11.579572 55.872457 -8.937456 5.089976 2.364684 17.307802 3.659495 1.209315 9.830284 1.962839 1.571048 12.280721 2.495847 1.209311 9.830285 1.962841 -6.554888 -0.901832 -6.357932 -6.314752 -27.835656 -6.007790 18.925183 -8.014411 -15.229361 27.228150 -52.830088 36.216235 65.680867 -14.954113 -6.305834 10.369982 -9.060930 -16.354845 -9.676586 -5.024170 -3.387372 11.340803 -25.537052 -66.233278 -70.176836 -14.331340 -24.507204 2.546681 -2.291889 -0.730799 125.496756 -82.460780 -149.963182 157.926653 39.198120 178.008781 1.818304 -28.573265 -5.750145 0.209357 -2.593987 -10.104138 128.626513 -76.355735 -127.895171 172.185835 40.103933 175.536005 -6.491829 -26.588443 3.528724 -0.253088 -1.010643 1.159074
-2.518647 31.537494 -11.636942 55.953221 -9.391804 5.125772 2.340321 17.352252 3.604411 1.203868 9.855596 1.941857 1.563812 12.312470 2.469509 1.203862 9.855598 1.941859 -6.547867 -0.860350 -6.371831 -6.299419 -27.783542 -6.025244 18.939097 -8.089133 -15.262143 27.203708 -52.825773 36.321995 65.659434 -14.914400 -6.250989 10.374461 -9.063432 -16.341187 -9.858572 -5.172048 -3.360489 10.709189 -26.067092 -65.487599 -69.441732 -14.303102 -24.439377 2.553287 -2.287879 -0.804954 126.320005 -82.371747 -150.673378 157.949416 39.098101 178.032667 1.759075 -28.517375 -5.724615 0.087227 -1.651269 -8.060040 129.221362 -76.261988 -128.526031 172.102355 40.063019 175.539763 -6.516547 -26.324308 3.435052 -0.266286 -0.524339 0.856110
